# xmcd
#
# Track frame offsets: 
#        150
#        14826
#        28894
#        41071
#        57334
#        72144
#        86921
#        101664
#        116508
#        130811
#
# Disc length: 1945 seconds
#
# Revision: 0
# Processed by: cddbd v1.5.2PL0 Copyright (c) Steve Scherf et al.
# Submitted via: ExactAudioCopy v1.3
#
DISCID=8f07970a
DTITLE=Marty Robbins - Everything I've Always Wanted
DYEAR=1981
DGENRE=Country
TTITLE0=The Woman In My Bed
TTITLE1=Completely Out Of Love
TTITLE2=There's No Wings On My Angel
TTITLE3=Holding On To You
TTITLE4=Gene Autry My Hero
TTITLE5=My Greatest Memory
TTITLE6=I'll Go On Alone
TTITLE7=Another Cup Of Coffee
TTITLE8=An Occasional Rose
TTITLE9=Crossroads Of Life
EXTD=
EXTT0=
EXTT1=
EXTT2=
EXTT3=
EXTT4=
EXTT5=
EXTT6=
EXTT7=
EXTT8=
EXTT9=
PLAYORDER=
